<svg width="29" height="31" viewBox="0 0 29 31" fill="none" xmlns="http://www.w3.org/2000/svg">
<path d="M28.9234 7.75C27.2598 4.8685 24.7131 2.59882 21.6598 1.27654C18.6066 -0.0457348 15.2089 -0.350424 11.9691 0.407527C8.72932 1.16548 5.81942 2.94583 3.66966 5.48536C1.51989 8.02489 0.244375 11.1888 0.031697 14.5092C-0.180981 17.8297 0.680468 21.1305 2.48868 23.9235C4.29689 26.7165 6.95587 28.8536 10.0725 30.0187C13.1891 31.1838 16.5979 31.315 19.7949 30.3931C22.9919 29.4711 25.8073 27.5449 27.825 24.8992L20.3688 19.213C19.5718 20.2582 18.4596 21.0191 17.1966 21.3833C15.9337 21.7475 14.5871 21.6956 13.3559 21.2354C12.1248 20.7751 11.0744 19.9309 10.3601 18.8276C9.64576 17.7242 9.30546 16.4203 9.38947 15.1086C9.47349 13.7969 9.97736 12.5471 10.8266 11.5439C11.6758 10.5407 12.8253 9.83735 14.1052 9.53794C15.385 9.23852 16.7272 9.35888 17.9333 9.88123C19.1395 10.4036 20.1455 11.3002 20.8027 12.4385L28.9234 7.75Z" fill="#326BFF"/>
</svg>
