<svg width="37" height="39" viewBox="0 0 37 39" fill="none" xmlns="http://www.w3.org/2000/svg">
<path d="M36.4126 9.79353C34.3274 6.16028 31.1276 3.29512 27.287 1.62228C23.4464 -0.0505648 19.1692 -0.442144 15.0887 0.50552C11.0082 1.45318 7.34133 3.68971 4.63108 6.88393C1.92083 10.0782 0.311262 14.0603 0.0407112 18.2406C-0.229839 22.421 0.853009 26.5773 3.12892 30.0942C5.40483 33.6112 8.7528 36.3017 12.6771 37.7674C16.6014 39.2331 20.8934 39.3962 24.9176 38.2323C28.9418 37.0685 32.4842 34.6397 35.0203 31.3055L33.347 30.0327C31.0843 33.0074 27.9238 35.1743 24.3335 36.2127C20.7432 37.251 16.9139 37.1056 13.4127 35.7979C9.91151 34.4902 6.9245 32.0898 4.89397 28.952C2.86343 25.8143 1.89733 22.106 2.13871 18.3764C2.3801 14.6467 3.81612 11.094 6.23417 8.24413C8.65222 5.39429 11.9237 3.3989 15.5643 2.55341C19.2048 1.70792 23.0209 2.05728 26.4474 3.54976C29.8739 5.04225 32.7287 7.5985 34.5891 10.84L36.4126 9.79353Z" fill="#F14E23"/>
</svg>
