<svg width="173" height="174" viewBox="0 0 173 174" fill="none" xmlns="http://www.w3.org/2000/svg">
<path d="M66.9626 161.679L71.2752 162.445L73.2258 151.457L76.3371 152.009L74.3865 162.997L78.6794 163.759L78.1515 166.733L66.4347 164.653L66.9626 161.679Z" fill="#1E254D"/>
<path d="M52.1511 143.567L55.0191 144.941L52.5827 150.027L57.6874 152.472L60.1238 147.386L62.9737 148.751L56.8482 161.539L53.9983 160.174L56.4001 155.16L51.2954 152.715L48.8936 157.729L46.0256 156.356L52.1511 143.567Z" fill="#1E254D"/>
<path d="M39.5322 133.602L46.3565 139.47L37.1119 150.222L30.3027 144.368L32.2455 142.108L36.6586 145.902L38.4188 143.855L34.4152 140.413L36.2276 138.305L40.2313 141.747L42.0046 139.685L37.5763 135.877L39.5322 133.602Z" fill="#1E254D"/>
<path d="M16.4954 126.583L14.0989 121.856C13.4779 120.631 13.3047 119.508 13.5793 118.487C13.8539 117.466 14.4907 116.702 15.4896 116.195C16.1199 115.876 16.7752 115.768 17.4556 115.871C18.1299 115.963 18.6919 116.231 19.1416 116.676C18.9708 115.985 19.0415 115.284 19.3535 114.573C19.6537 113.868 20.1903 113.319 20.9633 112.927C22.0099 112.396 23.059 112.328 24.1106 112.722C25.1444 113.11 25.9597 113.892 26.5566 115.069L29.143 120.171L16.4954 126.583ZM20.1689 121.268L19.3912 119.734C19.1379 119.234 18.8201 118.902 18.4375 118.737C18.037 118.566 17.6228 118.59 17.1946 118.807C16.7784 119.018 16.5237 119.326 16.4305 119.732C16.3255 120.144 16.4086 120.618 16.6799 121.153L17.4396 122.651L20.1689 121.268ZM25.4491 118.591L24.5538 116.825C24.2765 116.278 23.9286 115.916 23.5102 115.739C23.0799 115.569 22.6389 115.598 22.1869 115.827C21.7469 116.05 21.4685 116.386 21.3518 116.834C21.235 117.281 21.3153 117.779 21.5926 118.326L22.4879 120.092L25.4491 118.591Z" fill="#1E254D"/>
<path d="M20.7048 96.7651L22.7419 105.532L8.92987 108.741L6.89735 99.9941L9.80001 99.3196L11.1173 104.989L13.7472 104.377L12.5522 99.2344L15.26 98.6052L16.4551 103.748L19.1045 103.133L17.7827 97.4441L20.7048 96.7651Z" fill="#1E254D"/>
<path d="M9.44128 79.8944L10.2055 82.7443C9.76472 82.8054 9.35532 83.0203 8.97733 83.3889C8.59933 83.7575 8.40556 84.3218 8.39601 85.0817C8.3888 85.655 8.53626 86.1236 8.83837 86.4874C9.12716 86.851 9.4782 87.0355 9.89151 87.0407C10.6248 87.0499 11.0839 86.5889 11.269 85.6579L11.6528 83.7625C11.9092 82.459 12.4352 81.4589 13.2307 80.7621C14.013 80.0519 14.9241 79.7033 15.964 79.7164C17.1506 79.7313 18.1912 80.2178 19.0859 81.1757C19.9673 82.1336 20.3979 83.4124 20.3778 85.0123C20.3554 86.7988 19.878 88.1796 18.9457 89.1546C18.0002 90.1161 16.94 90.6495 15.7653 90.7548L15.1018 87.8462C15.8092 87.7884 16.3993 87.5225 16.872 87.0484C17.3315 86.5608 17.567 85.857 17.5786 84.9371C17.5863 84.3238 17.4591 83.8355 17.1969 83.4722C16.9215 83.1087 16.5638 82.9242 16.1238 82.9187C15.7638 82.9141 15.4622 83.0437 15.2188 83.3073C14.9622 83.5708 14.7842 83.9419 14.6848 84.4207L14.3005 86.356C14.0587 87.5531 13.5602 88.4935 12.8049 89.1774C12.0497 89.848 11.1455 90.1767 10.0923 90.1634C8.78571 90.147 7.70541 89.6334 6.85138 88.6226C5.99735 87.6118 5.57905 86.4131 5.59648 85.0265C5.60704 84.1866 5.73641 83.4415 5.9846 82.7912C6.21963 82.1275 6.53289 81.6047 6.92439 81.2229C7.31588 80.8411 7.71962 80.5462 8.1356 80.3381C8.55175 80.1166 8.98698 79.9687 9.44128 79.8944Z" fill="#1E254D"/>
<path d="M13.0786 60.6089L11.9484 64.8406L22.7305 67.7202L21.9151 70.7732L11.133 67.8936L10.008 72.106L7.09029 71.3267L10.1608 59.8297L13.0786 60.6089Z" fill="#1E254D"/>
<path d="M37.1033 41.7264L31.4139 49.0578L20.2114 40.3644L22.1487 37.8679L30.9654 44.7099L34.7174 39.8749L37.1033 41.7264Z" fill="#1E254D"/>
<path d="M44.5048 34.9433L42.0731 37.0234L32.8559 26.2477L35.2876 24.1676L44.5048 34.9433Z" fill="#1E254D"/>
<path d="M54.0383 16.2686L51.9385 18.3413C51.6675 17.9883 51.2784 17.7386 50.7711 17.5922C50.2639 17.4458 49.6775 17.5562 49.0122 17.9234C48.5102 18.2005 48.1758 18.5602 48.0088 19.0027C47.8354 19.4335 47.8485 19.8298 48.0482 20.1917C48.4026 20.8337 49.0303 21.0051 49.9311 20.7058L51.7685 20.1028C53.0285 19.6815 54.1579 19.6444 55.1567 19.9917C56.1608 20.3208 56.9141 20.9406 57.4166 21.8511C57.9901 22.89 58.0815 24.0351 57.6908 25.2863C57.2937 26.5259 56.3948 27.5323 54.994 28.3055C53.4298 29.1688 51.9935 29.4362 50.6851 29.1076C49.3819 28.7608 48.3943 28.1028 47.7223 27.1335L49.9229 25.1193C50.3228 25.7058 50.8456 26.0873 51.4913 26.2639C52.1423 26.4224 52.8705 26.2793 53.676 25.8348C54.2129 25.5384 54.5746 25.1865 54.7609 24.779C54.9407 24.3599 54.9244 23.9578 54.7117 23.5726C54.5378 23.2574 54.2761 23.0592 53.9266 22.9779C53.5707 22.885 53.1601 22.9136 52.6948 23.0639L50.8224 23.6862C49.6623 24.0677 48.5983 24.0991 47.6305 23.7804C46.6743 23.4553 45.9417 22.8317 45.4327 21.9095C44.8013 20.7655 44.7139 19.5725 45.1706 18.3305C45.6272 17.0885 46.4626 16.1325 47.6766 15.4624C48.412 15.0565 49.1237 14.8007 49.8117 14.6951C50.5048 14.5714 51.1141 14.5854 51.6395 14.737C52.1649 14.8887 52.6208 15.0939 53.0073 15.3527C53.4055 15.605 53.7492 15.9103 54.0383 16.2686Z" fill="#1E254D"/>
<path d="M72.6028 9.89861L68.3655 11.0074L71.1907 21.8039L68.1336 22.6039L65.3084 11.8074L61.0904 12.9112L60.3259 9.98954L71.8383 6.97699L72.6028 9.89861Z" fill="#1E254D"/>
<path d="M85.0229 20.049L81.8262 20.1935L81.186 6.02798L84.3827 5.8835L85.0229 20.049Z" fill="#1E254D"/>
<path d="M104.771 22.3077L101.485 21.7076L97.4148 11.4899L95.7402 20.6582L92.6513 20.094L95.1992 6.14481L98.9767 6.83479L102.661 16.2704L104.21 7.79071L107.319 8.3585L104.771 22.3077Z" fill="#1E254D"/>
<path d="M122.764 30.4779L120.486 29.3088L120.966 27.9364C120.432 28.217 119.787 28.3503 119.03 28.3363C118.273 28.3223 117.473 28.0991 116.631 27.6668C114.828 26.7413 113.62 25.357 113.007 23.5138C112.413 21.6649 112.615 19.7678 113.613 17.8224C114.606 15.889 116.05 14.6371 117.947 14.0668C119.861 13.4908 121.731 13.6716 123.558 14.6093C125.195 15.4496 126.296 16.5018 126.861 17.766C127.426 19.0302 127.604 20.2755 127.394 21.5016L124.205 21.0564C124.349 20.4556 124.278 19.79 123.994 19.0595C123.727 18.3232 123.132 17.7176 122.206 17.2426C121.234 16.7433 120.194 16.6369 119.088 16.9234C118 17.204 117.124 17.9908 116.46 19.2838C115.815 20.5411 115.671 21.7114 116.029 22.7945C116.394 23.8658 117.116 24.6785 118.195 25.2325C119.12 25.7075 119.956 25.8594 120.704 25.6885C121.457 25.5056 122.012 25.1984 122.368 24.7669L118.578 22.8215L119.802 20.4373L126.225 23.7344L122.764 30.4779Z" fill="#1E254D"/>
<path d="M137.673 44.2337L135.58 41.8125L146.31 32.5411L148.402 34.9623L137.673 44.2337Z" fill="#1E254D"/>
<path d="M148.123 61.1429L146.56 58.191L152.066 48.6694L143.828 53.0294L142.359 50.2542L154.892 43.6206L156.688 47.0145L151.559 55.749L159.177 51.7165L160.656 54.5094L148.123 61.1429Z" fill="#1E254D"/>
<path d="M164.161 87.3409L163.875 82.9702L152.739 83.698L152.533 80.5447L163.669 79.8169L163.385 75.4662L166.398 75.2692L167.174 87.1439L164.161 87.3409Z" fill="#1E254D"/>
<path d="M150.105 106.047L150.755 102.934L156.276 104.086L157.432 98.5455L151.911 97.3933L152.557 94.3L166.438 97.1968L165.792 100.29L160.349 99.1543L159.193 104.695L164.636 105.831L163.986 108.944L150.105 106.047Z" fill="#1E254D"/>
<path d="M143.44 120.679L147.51 112.652L160.157 119.063L156.097 127.073L153.439 125.725L156.07 120.534L153.662 119.314L151.275 124.023L148.795 122.766L151.182 118.057L148.756 116.827L146.116 122.035L143.44 120.679Z" fill="#1E254D"/>
<path d="M127.756 144.658L131.818 153.12L129.33 155.195L123.212 141.833L125.716 139.745L134.056 145.03L130.37 135.864L132.92 133.737L144.966 142.155L142.386 144.307L134.773 138.833L138.331 147.689L135.842 149.764L127.756 144.658Z" fill="#1E254D"/>
<path d="M119.488 155.543C119.912 154.533 119.83 153.401 119.24 152.146C118.65 150.891 117.832 150.104 116.784 149.786C115.724 149.474 114.699 149.55 113.709 150.015C112.72 150.48 112.013 151.217 111.588 152.227C111.164 153.236 111.247 154.369 111.836 155.624C112.426 156.879 113.245 157.665 114.292 157.983C115.346 158.313 116.368 158.246 117.357 157.781C118.347 157.316 119.057 156.57 119.488 155.543ZM122.2 150.733C123.136 152.724 123.247 154.639 122.534 156.476C121.814 158.332 120.525 159.696 118.667 160.569C116.808 161.442 114.942 161.56 113.066 160.924C111.191 160.287 109.789 158.98 108.859 157C107.929 155.021 107.818 153.107 108.525 151.257C109.238 149.42 110.524 148.064 112.383 147.191C114.241 146.318 116.111 146.191 117.993 146.81C119.868 147.446 121.271 148.754 122.2 150.733Z" fill="#1E254D"/>
<path d="M91.4784 152.972L100.603 151.281L103.187 165.224L100.08 165.799L98.0462 154.826L92.0287 155.941L91.4784 152.972Z" fill="#1E254D"/>
</svg>
