<svg width="753" height="768" viewBox="0 0 753 768" fill="none" xmlns="http://www.w3.org/2000/svg">
<rect x="109" y="64" width="467" height="605" fill="black" fill-opacity="0.2"/>
<path d="M154.897 36.0153C149.61 31.4294 142.486 29.4726 135.497 30.6594C139.983 25.3441 141.93 18.3786 140.808 11.613C146.107 15.9675 153.113 17.7637 159.959 16.5367C155.436 21.9959 153.569 29.1435 154.897 36.0153Z" stroke="#312F69" stroke-width="2"/>
<g filter="url(#filter0_d_0_170)">
<rect x="533" y="444" width="105.577" height="51.6154" rx="4" fill="white" shape-rendering="crispEdges"/>
<path d="M550.247 474.251V471.829L556.32 462.262H558.408V465.615H557.172L553.344 471.673V471.786H561.973V474.251H550.247ZM557.229 476.808V473.512L557.286 472.44V462.262H560.169V476.808H557.229ZM569.605 477.007C568.856 477.002 568.134 476.876 567.438 476.63C566.747 476.384 566.127 475.984 565.578 475.43C565.028 474.876 564.593 474.142 564.271 473.228C563.953 472.314 563.795 471.192 563.795 469.862C563.8 468.64 563.939 467.549 564.214 466.588C564.493 465.622 564.891 464.802 565.407 464.13C565.928 463.458 566.551 462.946 567.275 462.596C567.999 462.241 568.811 462.063 569.711 462.063C570.682 462.063 571.539 462.253 572.282 462.632C573.025 463.006 573.622 463.515 574.072 464.159C574.526 464.802 574.801 465.525 574.896 466.325H571.863C571.745 465.818 571.496 465.42 571.117 465.132C570.738 464.843 570.27 464.698 569.711 464.698C568.764 464.698 568.044 465.11 567.552 465.934C567.064 466.758 566.816 467.878 566.806 469.293H566.906C567.123 468.863 567.417 468.496 567.786 468.193C568.16 467.885 568.584 467.65 569.058 467.49C569.536 467.324 570.04 467.241 570.57 467.241C571.432 467.241 572.199 467.445 572.872 467.852C573.544 468.254 574.074 468.808 574.462 469.514C574.851 470.219 575.045 471.026 575.045 471.936C575.045 472.92 574.815 473.796 574.356 474.563C573.901 475.33 573.265 475.932 572.445 476.367C571.631 476.798 570.684 477.011 569.605 477.007ZM569.59 474.592C570.064 474.592 570.488 474.478 570.862 474.251C571.236 474.024 571.529 473.716 571.742 473.328C571.955 472.939 572.062 472.504 572.062 472.021C572.062 471.538 571.955 471.105 571.742 470.721C571.534 470.338 571.245 470.032 570.876 469.805C570.506 469.578 570.085 469.464 569.612 469.464C569.256 469.464 568.927 469.53 568.624 469.663C568.326 469.795 568.063 469.98 567.836 470.217C567.613 470.454 567.438 470.728 567.31 471.041C567.183 471.348 567.119 471.677 567.119 472.028C567.119 472.497 567.225 472.925 567.438 473.313C567.656 473.702 567.95 474.012 568.319 474.244C568.693 474.476 569.117 474.592 569.59 474.592ZM582.928 477.127C581.707 477.123 580.656 476.822 579.775 476.225C578.899 475.629 578.224 474.765 577.751 473.633C577.282 472.501 577.05 471.14 577.055 469.549C577.055 467.963 577.289 466.611 577.758 465.494C578.231 464.376 578.906 463.526 579.782 462.944C580.663 462.357 581.712 462.063 582.928 462.063C584.145 462.063 585.192 462.357 586.068 462.944C586.948 463.531 587.625 464.383 588.099 465.501C588.572 466.614 588.807 467.963 588.802 469.549C588.802 471.145 588.565 472.508 588.092 473.64C587.623 474.772 586.951 475.636 586.075 476.232C585.199 476.829 584.15 477.127 582.928 477.127ZM582.928 474.578C583.762 474.578 584.427 474.159 584.924 473.32C585.421 472.482 585.667 471.225 585.663 469.549C585.663 468.446 585.549 467.527 585.322 466.793C585.099 466.06 584.782 465.508 584.37 465.139C583.963 464.769 583.482 464.585 582.928 464.585C582.1 464.585 581.437 464.999 580.94 465.828C580.443 466.656 580.192 467.897 580.187 469.549C580.187 470.667 580.298 471.599 580.521 472.347C580.748 473.091 581.068 473.65 581.48 474.024C581.891 474.393 582.374 474.578 582.928 474.578ZM595.709 476.808V462.262H598.784V468.676H598.976L604.21 462.262H607.896L602.499 468.775L607.96 476.808H604.281L600.297 470.828L598.784 472.674V476.808H595.709ZM609.498 476.808V462.262H615.322C616.392 462.262 617.284 462.421 617.999 462.738C618.714 463.055 619.252 463.496 619.612 464.059C619.971 464.618 620.151 465.262 620.151 465.991C620.151 466.559 620.038 467.059 619.81 467.49C619.583 467.916 619.271 468.266 618.873 468.541C618.48 468.811 618.03 469.002 617.524 469.116V469.258C618.078 469.282 618.596 469.438 619.079 469.727C619.567 470.016 619.962 470.42 620.265 470.941C620.568 471.457 620.72 472.073 620.72 472.788C620.72 473.56 620.528 474.249 620.144 474.855C619.765 475.456 619.204 475.932 618.461 476.282C617.718 476.633 616.801 476.808 615.712 476.808H609.498ZM612.573 474.293H615.08C615.937 474.293 616.562 474.13 616.955 473.803C617.348 473.472 617.545 473.032 617.545 472.482C617.545 472.08 617.448 471.725 617.254 471.417C617.06 471.109 616.783 470.868 616.423 470.693C616.068 470.517 615.644 470.43 615.151 470.43H612.573V474.293ZM612.573 468.349H614.853C615.274 468.349 615.649 468.275 615.975 468.129C616.307 467.977 616.567 467.764 616.756 467.49C616.951 467.215 617.048 466.886 617.048 466.502C617.048 465.977 616.861 465.553 616.487 465.231C616.117 464.909 615.592 464.748 614.91 464.748H612.573V468.349Z" fill="#326BFF"/>
</g>
<g filter="url(#filter1_d_0_170)">
<rect x="178" y="106" width="100.885" height="51.6154" rx="4" fill="white" shape-rendering="crispEdges"/>
<path d="M197.562 138.808V136.703L202.481 132.148C202.899 131.743 203.25 131.379 203.534 131.055C203.821 130.731 204.04 130.414 204.188 130.104C204.336 129.789 204.411 129.449 204.411 129.085C204.411 128.68 204.318 128.332 204.134 128.039C203.95 127.742 203.698 127.515 203.378 127.358C203.059 127.196 202.697 127.115 202.292 127.115C201.869 127.115 201.5 127.2 201.186 127.371C200.871 127.542 200.628 127.787 200.457 128.107C200.286 128.426 200.2 128.806 200.2 129.247H197.427C197.427 128.343 197.632 127.558 198.041 126.892C198.451 126.226 199.024 125.711 199.762 125.347C200.5 124.983 201.35 124.801 202.312 124.801C203.302 124.801 204.163 124.976 204.896 125.327C205.634 125.673 206.208 126.155 206.617 126.771C207.026 127.387 207.231 128.093 207.231 128.889C207.231 129.411 207.128 129.926 206.921 130.434C206.718 130.943 206.356 131.507 205.834 132.128C205.313 132.744 204.577 133.484 203.628 134.348L201.611 136.325V136.419H207.413V138.808H197.562ZM211.237 138.983C210.792 138.983 210.409 138.826 210.09 138.511C209.775 138.191 209.618 137.809 209.618 137.364C209.618 136.923 209.775 136.545 210.09 136.23C210.409 135.915 210.792 135.758 211.237 135.758C211.669 135.758 212.047 135.915 212.371 136.23C212.695 136.545 212.856 136.923 212.856 137.364C212.856 137.661 212.78 137.933 212.627 138.18C212.479 138.423 212.283 138.619 212.04 138.767C211.797 138.911 211.53 138.983 211.237 138.983ZM219.936 138.997C219.225 138.992 218.539 138.873 217.878 138.639C217.221 138.405 216.632 138.025 216.11 137.499C215.588 136.972 215.175 136.275 214.869 135.407C214.567 134.539 214.417 133.473 214.417 132.209C214.421 131.048 214.554 130.012 214.815 129.099C215.08 128.181 215.458 127.403 215.948 126.764C216.443 126.125 217.035 125.639 217.723 125.307C218.411 124.969 219.182 124.801 220.037 124.801C220.959 124.801 221.773 124.98 222.48 125.34C223.186 125.696 223.753 126.179 224.18 126.791C224.612 127.403 224.873 128.089 224.963 128.849H222.082C221.969 128.368 221.733 127.99 221.373 127.715C221.013 127.441 220.568 127.304 220.037 127.304C219.138 127.304 218.454 127.695 217.986 128.478C217.523 129.26 217.287 130.324 217.278 131.669H217.372C217.579 131.26 217.858 130.911 218.209 130.623C218.564 130.331 218.967 130.108 219.416 129.955C219.871 129.798 220.35 129.719 220.854 129.719C221.672 129.719 222.401 129.913 223.04 130.3C223.678 130.682 224.182 131.208 224.551 131.878C224.92 132.549 225.104 133.315 225.104 134.179C225.104 135.115 224.886 135.947 224.45 136.676C224.018 137.404 223.413 137.976 222.635 138.389C221.861 138.799 220.961 139.001 219.936 138.997ZM219.922 136.703C220.372 136.703 220.775 136.595 221.13 136.379C221.486 136.163 221.764 135.87 221.967 135.502C222.169 135.133 222.27 134.719 222.27 134.26C222.27 133.801 222.169 133.39 221.967 133.025C221.769 132.661 221.495 132.371 221.144 132.155C220.793 131.939 220.392 131.831 219.943 131.831C219.605 131.831 219.293 131.894 219.005 132.02C218.721 132.146 218.472 132.321 218.256 132.546C218.044 132.771 217.878 133.032 217.757 133.329C217.635 133.621 217.574 133.934 217.574 134.267C217.574 134.712 217.676 135.119 217.878 135.488C218.085 135.857 218.364 136.152 218.715 136.372C219.07 136.592 219.473 136.703 219.922 136.703ZM231.654 124.989H235.257L239.062 134.274H239.224L243.03 124.989H246.633V138.808H243.799V129.814H243.684L240.108 138.74H238.179L234.603 129.78H234.488V138.808H231.654V124.989ZM249.04 138.808V124.989H254.572C255.589 124.989 256.437 125.14 257.116 125.442C257.795 125.743 258.306 126.161 258.648 126.697C258.99 127.227 259.161 127.839 259.161 128.532C259.161 129.072 259.053 129.546 258.837 129.955C258.621 130.36 258.324 130.693 257.946 130.954C257.573 131.21 257.145 131.393 256.664 131.501V131.635C257.19 131.658 257.683 131.806 258.142 132.081C258.605 132.355 258.981 132.74 259.268 133.235C259.556 133.725 259.7 134.31 259.7 134.989C259.7 135.722 259.518 136.376 259.154 136.952C258.794 137.523 258.261 137.976 257.555 138.308C256.848 138.641 255.978 138.808 254.944 138.808H249.04ZM251.961 136.419H254.343C255.157 136.419 255.751 136.264 256.124 135.954C256.498 135.639 256.684 135.22 256.684 134.699C256.684 134.316 256.592 133.979 256.408 133.687C256.223 133.394 255.96 133.165 255.618 132.998C255.281 132.832 254.878 132.749 254.411 132.749H251.961V136.419ZM251.961 130.772H254.127C254.527 130.772 254.883 130.702 255.193 130.563C255.508 130.419 255.755 130.216 255.935 129.955C256.12 129.695 256.212 129.382 256.212 129.018C256.212 128.518 256.034 128.116 255.679 127.81C255.328 127.504 254.829 127.351 254.181 127.351H251.961V130.772Z" fill="#EF0E0E"/>
</g>
<g filter="url(#filter2_d_0_170)">
<rect x="364" y="554" width="103.231" height="103.231" rx="12" fill="white" shape-rendering="crispEdges"/>
<path d="M396.765 583.365L436.565 601.39C437.109 601.68 437.547 602.134 437.817 602.687C438.088 603.24 438.177 603.865 438.071 604.472C437.966 605.078 437.672 605.636 437.231 606.066C436.79 606.496 436.225 606.776 435.615 606.865L420.04 610.015L416.865 625.615C416.78 626.226 416.503 626.795 416.075 627.239C415.647 627.683 415.089 627.981 414.482 628.089C413.874 628.197 413.248 628.11 412.693 627.841C412.138 627.572 411.682 627.134 411.39 626.59L393.365 586.765C393.101 586.29 392.999 585.742 393.074 585.204C393.149 584.666 393.398 584.167 393.782 583.782C394.167 583.398 394.666 583.149 395.204 583.074C395.742 582.999 396.29 583.101 396.765 583.365V583.365Z" stroke="black" stroke-width="3" stroke-linecap="round" stroke-linejoin="round"/>
</g>
<g filter="url(#filter3_d_0_170)">
<rect x="157" y="350" width="103.231" height="103.231" rx="12" fill="white" shape-rendering="crispEdges"/>
<path d="M203.815 392.34H204.065" stroke="black" stroke-width="4" stroke-linecap="round" stroke-linejoin="round"/>
<path d="M231.115 384.115V419.115C231.115 419.778 230.852 420.414 230.383 420.883C229.914 421.352 229.278 421.615 228.615 421.615H188.615C187.952 421.615 187.316 421.352 186.848 420.883C186.379 420.414 186.115 419.778 186.115 419.115V384.115C186.115 383.452 186.379 382.816 186.848 382.348C187.316 381.879 187.952 381.615 188.615 381.615H228.615C229.278 381.615 229.914 381.879 230.383 382.348C230.852 382.816 231.115 383.452 231.115 384.115ZM204.89 408.615L217.89 421.615H228.615C229.278 421.615 229.914 421.352 230.383 420.883C230.852 420.414 231.115 419.778 231.115 419.115V410.94L216.84 396.615L204.89 408.615ZM186.115 413.39V419.115C186.115 419.778 186.379 420.414 186.848 420.883C187.316 421.352 187.952 421.615 188.615 421.615H217.89L197.89 401.615L186.115 413.39Z" stroke="black" stroke-width="3" stroke-linecap="round" stroke-linejoin="round"/>
</g>
<g filter="url(#filter4_d_0_170)">
<rect x="549" y="87" width="103.231" height="103.231" rx="12" fill="white" shape-rendering="crispEdges"/>
<path d="M585.615 121.115H580.615C579.952 121.115 579.316 121.379 578.848 121.848C578.379 122.316 578.115 122.952 578.115 123.615V131.365C578.112 131.987 578.341 132.588 578.757 133.05C579.173 133.513 579.747 133.803 580.365 133.865L600.865 135.915C601.484 135.978 602.058 136.268 602.474 136.73C602.89 137.193 603.118 137.793 603.115 138.415V143.615" stroke="black" stroke-width="3" stroke-linecap="round" stroke-linejoin="round"/>
<path d="M585.615 123.615V118.615C585.615 117.952 585.879 117.316 586.348 116.848C586.816 116.379 587.452 116.115 588.115 116.115H618.115C618.778 116.115 619.414 116.379 619.883 116.848C620.352 117.316 620.615 117.952 620.615 118.615V123.615C620.615 124.278 620.352 124.914 619.883 125.383C619.414 125.852 618.778 126.115 618.115 126.115H588.115C587.452 126.115 586.816 125.852 586.348 125.383C585.879 124.914 585.615 124.278 585.615 123.615ZM603.115 161.115C604.441 161.115 605.713 160.589 606.651 159.651C607.589 158.713 608.115 157.441 608.115 156.115V146.115C608.115 145.452 607.852 144.816 607.383 144.348C606.914 143.879 606.278 143.615 605.615 143.615H600.615C599.952 143.615 599.316 143.879 598.848 144.348C598.379 144.816 598.115 145.452 598.115 146.115V156.115C598.115 157.441 598.642 158.713 599.58 159.651C600.518 160.589 601.789 161.115 603.115 161.115Z" stroke="black" stroke-width="3" stroke-linecap="round" stroke-linejoin="round"/>
</g>
<path d="M614 638.5C614 650.894 605.98 663.067 590.605 674.455C575.269 685.815 552.95 696.13 525.191 704.827C469.696 722.215 392.907 733 308 733C223.093 733 146.304 722.215 90.8091 704.827C63.0496 696.13 40.7305 685.815 25.3946 674.455C10.0204 663.067 2 650.894 2 638.5C2 626.106 10.0204 613.933 25.3946 602.545C40.7305 591.185 63.0496 580.87 90.8091 572.173C146.304 554.785 223.093 544 308 544C392.907 544 469.696 554.785 525.191 572.173C552.95 580.87 575.269 591.185 590.605 602.545C605.98 613.933 614 626.106 614 638.5Z" stroke="url(#paint0_linear_0_170)" stroke-width="4"/>
<defs>
<filter id="filter0_d_0_170" x="453" y="374" width="285.577" height="231.615" filterUnits="userSpaceOnUse" color-interpolation-filters="sRGB">
<feFlood flood-opacity="0" result="BackgroundImageFix"/>
<feColorMatrix in="SourceAlpha" type="matrix" values="0 0 0 0 0 0 0 0 0 0 0 0 0 0 0 0 0 0 127 0" result="hardAlpha"/>
<feOffset dx="10" dy="20"/>
<feGaussianBlur stdDeviation="45"/>
<feComposite in2="hardAlpha" operator="out"/>
<feColorMatrix type="matrix" values="0 0 0 0 0.870955 0 0 0 0 0.881928 0 0 0 0 0.920833 0 0 0 1 0"/>
<feBlend mode="multiply" in2="BackgroundImageFix" result="effect1_dropShadow_0_170"/>
<feBlend mode="normal" in="SourceGraphic" in2="effect1_dropShadow_0_170" result="shape"/>
</filter>
<filter id="filter1_d_0_170" x="98" y="36" width="280.885" height="231.615" filterUnits="userSpaceOnUse" color-interpolation-filters="sRGB">
<feFlood flood-opacity="0" result="BackgroundImageFix"/>
<feColorMatrix in="SourceAlpha" type="matrix" values="0 0 0 0 0 0 0 0 0 0 0 0 0 0 0 0 0 0 127 0" result="hardAlpha"/>
<feOffset dx="10" dy="20"/>
<feGaussianBlur stdDeviation="45"/>
<feComposite in2="hardAlpha" operator="out"/>
<feColorMatrix type="matrix" values="0 0 0 0 0.870955 0 0 0 0 0.881928 0 0 0 0 0.920833 0 0 0 1 0"/>
<feBlend mode="multiply" in2="BackgroundImageFix" result="effect1_dropShadow_0_170"/>
<feBlend mode="normal" in="SourceGraphic" in2="effect1_dropShadow_0_170" result="shape"/>
</filter>
<filter id="filter2_d_0_170" x="284" y="484" width="283.231" height="283.231" filterUnits="userSpaceOnUse" color-interpolation-filters="sRGB">
<feFlood flood-opacity="0" result="BackgroundImageFix"/>
<feColorMatrix in="SourceAlpha" type="matrix" values="0 0 0 0 0 0 0 0 0 0 0 0 0 0 0 0 0 0 127 0" result="hardAlpha"/>
<feOffset dx="10" dy="20"/>
<feGaussianBlur stdDeviation="45"/>
<feComposite in2="hardAlpha" operator="out"/>
<feColorMatrix type="matrix" values="0 0 0 0 0.870955 0 0 0 0 0.881928 0 0 0 0 0.920833 0 0 0 1 0"/>
<feBlend mode="multiply" in2="BackgroundImageFix" result="effect1_dropShadow_0_170"/>
<feBlend mode="normal" in="SourceGraphic" in2="effect1_dropShadow_0_170" result="shape"/>
</filter>
<filter id="filter3_d_0_170" x="77" y="280" width="283.231" height="283.231" filterUnits="userSpaceOnUse" color-interpolation-filters="sRGB">
<feFlood flood-opacity="0" result="BackgroundImageFix"/>
<feColorMatrix in="SourceAlpha" type="matrix" values="0 0 0 0 0 0 0 0 0 0 0 0 0 0 0 0 0 0 127 0" result="hardAlpha"/>
<feOffset dx="10" dy="20"/>
<feGaussianBlur stdDeviation="45"/>
<feComposite in2="hardAlpha" operator="out"/>
<feColorMatrix type="matrix" values="0 0 0 0 0.870955 0 0 0 0 0.881928 0 0 0 0 0.920833 0 0 0 1 0"/>
<feBlend mode="multiply" in2="BackgroundImageFix" result="effect1_dropShadow_0_170"/>
<feBlend mode="normal" in="SourceGraphic" in2="effect1_dropShadow_0_170" result="shape"/>
</filter>
<filter id="filter4_d_0_170" x="469" y="17" width="283.231" height="283.231" filterUnits="userSpaceOnUse" color-interpolation-filters="sRGB">
<feFlood flood-opacity="0" result="BackgroundImageFix"/>
<feColorMatrix in="SourceAlpha" type="matrix" values="0 0 0 0 0 0 0 0 0 0 0 0 0 0 0 0 0 0 127 0" result="hardAlpha"/>
<feOffset dx="10" dy="20"/>
<feGaussianBlur stdDeviation="45"/>
<feComposite in2="hardAlpha" operator="out"/>
<feColorMatrix type="matrix" values="0 0 0 0 0.870955 0 0 0 0 0.881928 0 0 0 0 0.920833 0 0 0 1 0"/>
<feBlend mode="multiply" in2="BackgroundImageFix" result="effect1_dropShadow_0_170"/>
<feBlend mode="normal" in="SourceGraphic" in2="effect1_dropShadow_0_170" result="shape"/>
</filter>
<linearGradient id="paint0_linear_0_170" x1="308" y1="542" x2="308" y2="735" gradientUnits="userSpaceOnUse">
<stop stop-color="#E8E9EE" stop-opacity="0"/>
<stop offset="1" stop-color="#ED9747"/>
</linearGradient>
</defs>
</svg>
